<svg width="40" height="41" viewBox="0 0 40 41" fill="none" xmlns="http://www.w3.org/2000/svg">
<mask id="mask0_171_667" style="mask-type:alpha" maskUnits="userSpaceOnUse" x="0" y="0" width="40" height="41">
<rect y="0.0600586" width="40" height="40" fill="#C4C4C4"/>
</mask>
<g mask="url(#mask0_171_667)">
<g opacity="0.2">
<path d="M28.3009 47.1384C28.2917 45.2563 28.9873 43.4388 30.2509 42.0435C31.5145 40.6482 33.2547 39.776 35.1291 39.5983C37.0035 39.4207 38.8766 39.9506 40.38 41.0838C41.8833 42.2169 42.9082 43.8714 43.2529 45.7217L46.4701 60.4201L31.844 63.8203L28.641 49.3556C28.4186 48.6374 28.3039 47.8902 28.3009 47.1384Z" fill="#C1272D"/>
<path d="M12.8033 47.1384C12.8226 45.2493 12.1315 43.4219 10.8669 42.0181C9.60231 40.6142 7.85643 39.7362 5.975 39.558C4.09357 39.3798 2.21381 39.9144 0.707976 41.0559C-0.797857 42.1974 -1.81995 43.8626 -2.15588 45.7217L-5.37305 60.4272L9.26012 63.8203L12.456 49.3555C12.6841 48.6385 12.8012 47.8908 12.8033 47.1384Z" fill="#C1272D"/>
<path d="M14.7525 34.7988L20.379 34.8767L25.8637 34.7988L37.5986 39.814L35.3593 83.0453H20.379H5.25684L3.01758 39.814L14.7525 34.7988Z" fill="#7F0B00"/>
<path d="M20.0025 40.6994C23.3968 40.6994 26.8478 38.1988 26.8478 35.1458C26.8478 35.1458 25.636 26.9005 26.1392 23.4012C26.6423 19.9019 13.8516 23.4012 13.8516 23.4012V35.1671C13.8586 38.2201 16.6152 40.6994 20.0025 40.6994Z" fill="#F3C7AB"/>
<g style="mix-blend-mode:soft-light">
<g style="mix-blend-mode:multiply">
<path d="M25.6793 25.2288C25.6793 25.2288 23.5109 32.0503 18.4584 32.0503C15.3758 32.0503 14.2066 30.2369 13.8594 29.0822V28.1472C15.7573 28.9273 17.7956 29.3082 19.8473 29.2664C23.9361 29.2735 25.6793 25.2288 25.6793 25.2288Z" fill="#1A1A1A"/>
</g>
</g>
<path d="M28.5141 20.3269L29.7896 12.6554C30.562 8.68146 26.1685 6.58472 23.5112 6.58472H14.299C11.4645 6.58472 8.11977 8.6673 9.5512 13.1441L10.3732 19.9161L28.5141 20.3269Z" fill="#1A1A1A"/>
<path d="M13.4057 22.4734C11.6979 24.0318 7.84298 18.1595 9.49409 16.4949C11.1452 14.8302 12.5979 17.3874 12.5979 17.3874L12.8813 19.6683L13.3703 21.7934L13.5403 22.438L13.4057 22.4734Z" fill="#F3B6A2"/>
<path d="M26.0122 22.275C28.0885 23.6421 31.6812 17.4015 29.6545 15.8997C27.6279 14.398 26.3594 17.1606 26.3594 17.1606L25.75 19.2857L25.9484 21.6375L25.835 22.2962L26.0122 22.275Z" fill="#F3C7AB"/>
<path d="M28.7542 17.7981C28.7542 17.7981 27.4078 17.3518 26.4512 19.3353" stroke="#D26665" stroke-width="0.52" stroke-linecap="round" stroke-linejoin="round"/>
<path d="M27.1035 18.365C27.1035 18.365 28.5704 19.1513 27.6066 20.3272" stroke="#D26665" stroke-width="0.52" stroke-linecap="round" stroke-linejoin="round"/>
<path d="M10.032 14.2138C10.0364 17.424 10.3808 20.6248 11.0595 23.7625C11.5626 26.0788 12.4767 28.2039 14.0428 29.5923L14.4042 29.826C16.5301 31.2073 18.3725 31.1648 21.6676 29.656C24.8494 28.2393 26.1958 24.825 26.6635 22.3387C25.0194 20.2136 25.4092 14.4688 25.4092 14.4688C25.4092 14.4688 28.2437 4.41715 18.8544 4.60841C9.46507 4.79967 10.032 14.2138 10.032 14.2138Z" fill="#F3C7AB"/>
<path d="M9.39414 3.92846C12.5971 0.223732 21.8447 4.52348 26.0611 5.48685C27.8326 5.89062 27.698 7.74652 26.5925 9.12074C27.1807 10.4029 26.4437 15.3897 25.7209 20.327C24.6427 17.6316 24.2483 14.7114 24.5729 11.8267C22.0715 12.9317 15.3608 13.0309 10.8964 11.5292C10.4571 14.2493 10.1878 18.039 10.1878 18.039C9.8111 15.7086 9.84708 13.3301 10.2941 11.0121C10.0119 10.8204 9.75062 10.5996 9.51461 10.3533C9.51461 10.3533 5.83683 8.10778 9.39414 3.92846Z" fill="#1A1A1A"/>
<path d="M15.4328 18.365L14.9863 21.3968C14.9867 21.5009 15.0059 21.6041 15.043 21.7014C15.1223 21.8762 15.2618 22.0168 15.4361 22.0974C15.6104 22.178 15.8079 22.1934 15.9926 22.1406L16.8075 21.921" stroke="#D26665" stroke-width="0.52" stroke-linecap="round" stroke-linejoin="round"/>
<path d="M19.1895 17.0685C19.1895 17.2296 19.2372 17.3871 19.3268 17.5211C19.4163 17.6551 19.5436 17.7595 19.6925 17.8211C19.8414 17.8828 20.0053 17.8989 20.1634 17.8675C20.3214 17.8361 20.4666 17.7585 20.5806 17.6445C20.6946 17.5306 20.7722 17.3855 20.8036 17.2274C20.8351 17.0694 20.8189 16.9056 20.7573 16.7568C20.6956 16.6079 20.5911 16.4807 20.4571 16.3912C20.3231 16.3017 20.1656 16.2539 20.0044 16.2539C19.8974 16.2539 19.7914 16.275 19.6925 16.3159C19.5936 16.3569 19.5038 16.4169 19.4281 16.4925C19.3525 16.5681 19.2924 16.6579 19.2515 16.7568C19.2105 16.8556 19.1895 16.9615 19.1895 17.0685Z" fill="#1A1A1A"/>
<path d="M11.6406 17.0685C11.6406 17.2296 11.6884 17.3871 11.778 17.5211C11.8675 17.6551 11.9948 17.7595 12.1437 17.8211C12.2926 17.8828 12.4565 17.8989 12.6145 17.8675C12.7726 17.8361 12.9178 17.7585 13.0318 17.6445C13.1458 17.5306 13.2234 17.3855 13.2548 17.2274C13.2863 17.0694 13.2701 16.9056 13.2084 16.7568C13.1468 16.6079 13.0423 16.4807 12.9083 16.3912C12.7743 16.3017 12.6167 16.2539 12.4555 16.2539C12.2394 16.2539 12.0321 16.3397 11.8793 16.4925C11.7265 16.6453 11.6406 16.8525 11.6406 17.0685Z" fill="#1A1A1A"/>
<path d="M18.2677 23.635C17.5833 24.0143 16.8008 24.1796 16.0214 24.1096C15.1956 24.1282 14.3757 23.9663 13.6191 23.635" stroke="#D26665" stroke-width="0.52" stroke-linecap="round" stroke-linejoin="round"/>
<path d="M15.8867 28.2322V29.1105" stroke="#D26665" stroke-width="0.39" stroke-linecap="round" stroke-linejoin="round"/>
<path d="M17.6426 15.2056V13.6189L20.5834 13.6685C20.9575 13.6746 21.3179 13.8097 21.6038 14.051L22.773 15.3969L20.8243 15.1065L17.6426 15.2056Z" fill="#1A1A1A"/>
<path d="M14.2136 15.2056V13.6189H11.8114C11.6561 13.623 11.5033 13.6584 11.3621 13.7229C11.2209 13.7874 11.0941 13.8797 10.9894 13.9943L10.0469 15.3331L11.6342 15.0569L14.2136 15.2056Z" fill="#1A1A1A"/>
</g>
</g>
</svg>
