<svg width="40" height="41" viewBox="0 0 40 41" fill="none" xmlns="http://www.w3.org/2000/svg">
<mask id="mask0_171_636" style="mask-type:alpha" maskUnits="userSpaceOnUse" x="0" y="0" width="40" height="41">
<rect y="0.0600586" width="40" height="40" fill="#C4C4C4"/>
</mask>
<g mask="url(#mask0_171_636)">
<path d="M11.6287 45.8759C11.6382 43.9276 10.919 42.0463 9.61251 40.6019C8.30605 39.1575 6.5069 38.2546 4.56889 38.0707C2.63087 37.8869 0.69426 38.4354 -0.860086 39.6084C-2.41443 40.7814 -3.47402 42.494 -3.83045 44.4093L-7.16406 59.632L7.97272 63.1443L11.277 48.171C11.507 47.4276 11.6255 46.6541 11.6287 45.8759Z" fill="#C1272D"/>
<path d="M27.6602 45.8759C27.6508 43.9276 28.37 42.0463 29.6764 40.6019C30.9829 39.1575 32.782 38.2546 34.7201 38.0707C36.6581 37.8869 38.5947 38.4354 40.149 39.6084C41.7034 40.7814 42.763 42.494 43.1194 44.4093L46.4457 59.6247L31.3162 63.1443L28.0119 48.171C27.7819 47.4276 27.6634 46.6541 27.6602 45.8759Z" fill="#C1272D"/>
<path d="M25.6366 33.1023L19.8193 33.1903L14.1485 33.1023L2.01562 38.2938L4.33083 83.0452H19.8193H35.4543L37.7695 38.2938L25.6366 33.1023Z" fill="#7F0B00"/>
<path d="M19.989 40.0537C18.3043 40.0537 16.6886 39.3839 15.4974 38.1917C14.3061 36.9994 13.6369 35.3824 13.6369 33.6963L13.168 20.1675H26.6709L26.3412 33.6963C26.3412 35.3824 25.672 36.9994 24.4807 38.1917C23.2894 39.3839 21.6737 40.0537 19.989 40.0537Z" fill="#F3C7AB"/>
<g style="mix-blend-mode:soft-light">
<g style="mix-blend-mode:multiply">
<path d="M13.373 26.0778L13.4463 28.0723C13.9885 30.0081 15.996 33.1538 19.8205 33.2052C21.336 33.2287 22.8156 32.743 24.0229 31.8258C25.2302 30.9086 26.0955 29.6129 26.4804 28.1456L26.5243 25.2932C26.5243 25.2932 23.5937 29.3555 19.8058 29.3555C18.5542 29.3394 17.3231 29.0354 16.2077 28.4671C15.0923 27.8987 14.1224 27.0812 13.373 26.0778Z" fill="#1A1A1A"/>
</g>
</g>
<path d="M10.5155 18.855L9.87075 12.4242C9.05749 8.31061 12.2592 6.14014 15.0653 6.14014H24.7804C27.711 6.14014 31.2938 8.29594 29.7845 12.9302L28.9199 19.9329L10.5155 18.855Z" fill="#1A1A1A"/>
<path d="M27.9166 23.3572C29.7629 24.7284 32.9499 18.4736 31.1549 16.9924C29.3599 15.5112 28.1876 18.2243 28.1876 18.2243L28.1437 20.5268L27.8799 22.6826L27.7773 23.3425L27.9166 23.3572Z" fill="#F3C7AB"/>
<path d="M30.655 18.8771C30.655 18.8771 29.3143 18.4298 28.3691 20.417" stroke="#D26665" stroke-width="0.52" stroke-linecap="round" stroke-linejoin="round"/>
<path d="M29.0156 19.4783C29.0156 19.4783 30.4809 20.2629 29.5138 21.4434" stroke="#D26665" stroke-width="0.52" stroke-linecap="round" stroke-linejoin="round"/>
<path d="M11.8039 23.3574C9.95757 24.7286 6.77049 18.4739 8.56551 16.9927C10.3605 15.5115 11.4962 18.2539 11.4962 18.2539L11.6061 20.527L11.8698 22.6828L11.9724 23.3428L11.8039 23.3574Z" fill="#F3C7AB"/>
<path d="M9.06445 18.8771C9.06445 18.8771 10.4052 18.4298 11.3504 20.417" stroke="#D26665" stroke-width="0.52" stroke-linecap="round" stroke-linejoin="round"/>
<path d="M10.6983 19.4783C10.6983 19.4783 9.233 20.2629 10.2074 21.4434" stroke="#D26665" stroke-width="0.52" stroke-linecap="round" stroke-linejoin="round"/>
<path d="M28.9199 13.9495C28.9177 17.2558 28.5616 20.5523 27.8575 23.7827C27.3179 26.1764 25.8568 28.2606 23.7913 29.5828L23.4176 29.8248C22.3411 30.5192 21.0905 30.8952 19.8099 30.9095C18.5292 30.9237 17.2706 30.5757 16.1789 29.9054C15.0763 29.2329 14.1258 28.3379 13.3878 27.2774C12.6499 26.217 12.1407 25.0143 11.8929 23.746C11.3316 20.5084 11.006 17.2343 10.9184 13.9495C10.9184 13.9495 10.0832 3.92576 19.7836 4.12374C29.484 4.32173 28.9199 13.9495 28.9199 13.9495Z" fill="#F3C7AB"/>
<path d="M27.4537 4.24096C25.8962 3.26107 24.1293 2.66331 22.2972 2.49638C20.4651 2.32945 18.6195 2.59808 16.9107 3.28038C16.8267 3.30342 16.7388 3.30814 16.6529 3.29422C16.5669 3.28031 16.4849 3.24808 16.4125 3.19972C15.0571 2.46645 12.6686 4.35829 12.6686 4.35829C6.31644 10.2244 8.7562 15.1813 11.2839 20.0502C11.8756 17.842 12.2172 15.5742 12.3023 13.2895C14.8886 14.4334 22.9552 17.0512 27.5856 15.4893C27.7384 16.9758 28.0128 18.4473 28.4062 19.8889C30.8459 16.6405 30.758 15.372 30.7434 14.998C30.7507 15.0127 34.7217 9.10253 27.4537 4.24096Z" fill="#1A1A1A"/>
<path d="M19.8127 21.7146L19.0801 24.2737C19.0803 24.3579 19.1004 24.4408 19.1387 24.5157C19.2369 24.6849 19.3798 24.8237 19.5517 24.9169C19.7236 25.01 19.9179 25.0539 20.1131 25.0436C20.4309 25.0353 20.7351 24.913 20.9703 24.699" stroke="#D26665" stroke-width="0.52" stroke-linecap="round" stroke-linejoin="round"/>
<path d="M15.7108 20.065C16.2651 20.065 16.7145 19.7761 16.7145 19.4197C16.7145 19.0633 16.2651 18.7744 15.7108 18.7744C15.1564 18.7744 14.707 19.0633 14.707 19.4197C14.707 19.7761 15.1564 20.065 15.7108 20.065Z" fill="#1A1A1A"/>
<path d="M23.9744 20.065C24.5288 20.065 24.9782 19.7761 24.9782 19.4197C24.9782 19.0633 24.5288 18.7744 23.9744 18.7744C23.4201 18.7744 22.9707 19.0633 22.9707 19.4197C22.9707 19.7761 23.4201 20.065 23.9744 20.065Z" fill="#1A1A1A"/>
<path d="M17.4023 26.0337C18.1105 26.425 18.9191 26.5961 19.7249 26.525C20.581 26.5437 21.4309 26.3761 22.2159 26.0337" stroke="#D26665" stroke-width="0.52" stroke-linecap="round" stroke-linejoin="round"/>
<path d="M19.8047 29.5901V30.052" stroke="#D26665" stroke-width="0.39" stroke-linecap="round" stroke-linejoin="round"/>
<path d="M17.929 18.6425V17.4619L14.8811 17.4986C14.5125 17.498 14.1506 17.5968 13.8334 17.7846L12.6172 18.7891L14.6393 18.5765L17.929 18.6425Z" fill="#1A1A1A"/>
<path d="M21.5195 18.6425V17.4619L24.5234 17.4986C24.8919 17.4991 25.2535 17.5978 25.5711 17.7846L26.78 18.7891L24.7652 18.5765L21.5195 18.6425Z" fill="#1A1A1A"/>
<g style="mix-blend-mode:soft-light">
<path d="M17.5762 26.3638C18.2178 26.6044 18.8985 26.7237 19.5837 26.7157C20.3276 26.7323 21.0694 26.6308 21.7816 26.4151C21.5344 26.6975 21.2251 26.9186 20.8781 27.0611C20.531 27.2037 20.1556 27.2636 19.7815 27.2364C18.0671 27.2877 17.5762 26.3638 17.5762 26.3638Z" fill="#4D4D4D"/>
</g>
</g>
</svg>
