<svg width="40" height="38" viewBox="0 0 40 38" fill="none" xmlns="http://www.w3.org/2000/svg">
<mask id="mask0_1_2" style="mask-type:alpha" maskUnits="userSpaceOnUse" x="0" y="0" width="40" height="38">
<rect width="40" height="38" transform="matrix(-1 0 0 1 40 0)" fill="#C4C4C4"/>
</mask>
<g mask="url(#mask0_1_2)">
<g opacity="0.2">
<path d="M11.703 44.7246C11.7122 42.9366 11.0166 41.2101 9.75299 39.8845C8.48938 38.559 6.74925 37.7303 4.87481 37.5616C3.00036 37.3929 1.12728 37.8963 -0.37608 38.9728C-1.87944 40.0493 -2.90427 41.621 -3.24902 43.3788L-6.46619 57.3423L8.1599 60.5724L11.3629 46.8309C11.5853 46.1487 11.7 45.4389 11.703 44.7246V44.7246Z" fill="#C1272D"/>
<path d="M27.1987 44.7249C27.1794 42.9303 27.8705 41.1942 29.1351 39.8606C30.3996 38.5269 32.1455 37.6928 34.027 37.5235C35.9084 37.3543 37.7881 37.8621 39.294 38.9466C40.7998 40.031 41.8219 41.6129 42.1578 43.379V43.379L45.375 57.3493L30.7418 60.5727L27.5459 46.8312C27.3178 46.15 27.2007 45.4397 27.1987 44.7249V44.7249Z" fill="#C1272D"/>
<path d="M25.2495 33.0023L19.623 33.0763L14.1382 33.0023L2.40334 37.7667L4.64261 78.8364H19.623H34.7451L36.9844 37.7667L25.2495 33.0023Z" fill="#7F0B00"/>
<path d="M20.0015 38.6076C16.6071 38.6076 13.1561 36.2321 13.1561 33.3317C13.1561 33.3317 14.3679 25.4986 13.8647 22.1743C13.3616 18.85 26.1523 22.1743 26.1523 22.1743V33.3519C26.1453 36.2523 23.3887 38.6076 20.0015 38.6076Z" fill="#F3C7AB"/>
<g style="mix-blend-mode:soft-light">
<g style="mix-blend-mode:multiply">
<path d="M14.3207 23.9105C14.3207 23.9105 16.4891 30.3909 21.5416 30.3909C24.6242 30.3909 25.7934 28.6682 26.1406 27.5713V26.683C24.2427 27.4241 22.2044 27.786 20.1527 27.7463C16.0639 27.753 14.3207 23.9105 14.3207 23.9105Z" fill="#1A1A1A"/>
</g>
</g>
<path d="M11.4879 19.2542L10.2123 11.9662C9.43994 8.19103 13.8334 6.19912 16.4908 6.19912H25.703C28.5375 6.19912 31.8822 8.17757 30.4508 12.4306L29.6287 18.8639L11.4879 19.2542Z" fill="#1A1A1A"/>
<path d="M26.5962 21.2929C28.304 22.7734 32.159 17.1947 30.5079 15.6133C28.8568 14.0319 27.4041 16.4612 27.4041 16.4612L27.1206 18.6281L26.6317 20.6469L26.4616 21.2593L26.5962 21.2929Z" fill="#F3B6A2"/>
<path d="M13.9878 21.1042C11.9115 22.403 8.31879 16.4743 10.3455 15.0477C12.3721 13.6211 13.6406 16.2455 13.6406 16.2455L14.25 18.2644L14.0516 20.4985L14.165 21.1244L13.9878 21.1042Z" fill="#F3C7AB"/>
<path d="M11.2477 16.8514C11.2477 16.8514 12.5941 16.4274 13.5508 18.3117" stroke="#D26665" stroke-width="0.52" stroke-linecap="round" stroke-linejoin="round"/>
<path d="M12.8984 17.3904C12.8984 17.3904 11.4316 18.1373 12.3953 19.2544" stroke="#D26665" stroke-width="0.52" stroke-linecap="round" stroke-linejoin="round"/>
<path d="M29.97 13.4463C29.9656 16.496 29.6212 19.5367 28.9425 22.5175C28.4393 24.718 27.5252 26.7369 25.9591 28.0558L25.5977 28.2779C23.4719 29.5902 21.6294 29.5498 18.3343 28.1164C15.1526 26.7705 13.8062 23.5269 13.3385 21.1649C14.9825 19.1461 14.5928 13.6885 14.5928 13.6885C14.5928 13.6885 11.7582 4.13947 21.1476 4.32116C30.5369 4.50286 29.97 13.4463 29.97 13.4463Z" fill="#F3C7AB"/>
<path d="M30.6059 3.67544C27.4029 0.155953 18.1553 4.24071 13.9389 5.15592C12.1674 5.53949 12.302 7.3026 13.4075 8.60811C12.8193 9.82614 13.5563 14.5637 14.2791 19.2541C15.3573 16.6934 15.7517 13.9192 15.4271 11.1788C17.9285 12.2285 24.6392 12.3228 29.1036 10.8961C29.5429 13.4802 29.8122 17.0805 29.8122 17.0805C30.1889 14.8665 30.1529 12.607 29.7059 10.4049C29.9881 10.2228 30.2494 10.013 30.4854 9.77903C30.4854 9.77903 34.1632 7.6458 30.6059 3.67544Z" fill="#1A1A1A"/>
<path d="M24.5692 17.3904L25.0156 20.2706C25.0152 20.3695 24.996 20.4675 24.9589 20.5599C24.8797 20.7261 24.7401 20.8596 24.5658 20.9362C24.3915 21.0128 24.194 21.0273 24.0094 20.9772L23.1945 20.7686" stroke="#D26665" stroke-width="0.52" stroke-linecap="round" stroke-linejoin="round"/>
<path d="M20.8125 16.1585C20.8125 16.3116 20.7647 16.4612 20.6752 16.5884C20.5856 16.7157 20.4583 16.8149 20.3094 16.8735C20.1605 16.9321 19.9967 16.9474 19.8386 16.9175C19.6805 16.8877 19.5353 16.814 19.4213 16.7057C19.3074 16.5975 19.2298 16.4596 19.1983 16.3095C19.1669 16.1594 19.183 16.0038 19.2447 15.8624C19.3064 15.7209 19.4108 15.6001 19.5448 15.515C19.6788 15.43 19.8364 15.3846 19.9976 15.3846C20.1046 15.3846 20.2106 15.4046 20.3094 15.4435C20.4083 15.4824 20.4981 15.5394 20.5738 15.6113C20.6495 15.6831 20.7095 15.7685 20.7505 15.8624C20.7914 15.9562 20.8125 16.0569 20.8125 16.1585V16.1585Z" fill="#1A1A1A"/>
<path d="M28.3594 16.1585C28.3594 16.3116 28.3116 16.4612 28.222 16.5884C28.1325 16.7157 28.0052 16.8149 27.8563 16.8735C27.7074 16.9321 27.5435 16.9474 27.3855 16.9175C27.2274 16.8877 27.0822 16.814 26.9682 16.7057C26.8542 16.5975 26.7766 16.4596 26.7452 16.3095C26.7137 16.1594 26.7299 16.0038 26.7916 15.8624C26.8532 15.7209 26.9577 15.6001 27.0917 15.515C27.2257 15.43 27.3833 15.3846 27.5445 15.3846C27.7606 15.3846 27.9679 15.4662 28.1207 15.6113C28.2735 15.7564 28.3594 15.9533 28.3594 16.1585Z" fill="#1A1A1A"/>
<path d="M21.7342 22.3964C22.4186 22.7567 23.2011 22.9138 23.9806 22.8473C24.8063 22.865 25.6262 22.7111 26.3828 22.3964" stroke="#D26665" stroke-width="0.52" stroke-linecap="round" stroke-linejoin="round"/>
<path d="M24.1172 26.7642V27.5987" stroke="#D26665" stroke-width="0.39" stroke-linecap="round" stroke-linejoin="round"/>
<path d="M22.3594 14.389V12.8816L19.4186 12.9287C19.0445 12.9345 18.684 13.0629 18.3981 13.2921L17.2289 14.5707L19.1776 14.2948L22.3594 14.389Z" fill="#1A1A1A"/>
<path d="M25.7864 14.389V12.8816H28.1886C28.3439 12.8855 28.4967 12.9191 28.6379 12.9804C28.7791 13.0417 28.9059 13.1294 29.0106 13.2383L29.9531 14.5101L28.3658 14.2477L25.7864 14.389Z" fill="#1A1A1A"/>
</g>
</g>
</svg>
