<svg width="40" height="41" viewBox="0 0 40 41" fill="none" xmlns="http://www.w3.org/2000/svg">
<mask id="mask0_171_696" style="mask-type:alpha" maskUnits="userSpaceOnUse" x="0" y="0" width="40" height="41">
<rect y="0.0600586" width="40" height="40" fill="#C4C4C4"/>
</mask>
<g mask="url(#mask0_171_696)">
<g opacity="0.2">
<path d="M12.8221 45.885C12.8313 43.9998 12.135 42.1794 10.87 40.7817C9.60513 39.3841 7.86319 38.5104 5.9868 38.3325C4.11042 38.1546 2.23539 38.6854 0.730468 39.8204C-0.77445 40.9554 -1.80034 42.6126 -2.14545 44.466L-5.37305 59.1958L9.28239 62.5944L12.4816 48.1058C12.7043 47.3865 12.819 46.6381 12.8221 45.885Z" fill="#C1272D"/>
<path d="M28.3419 45.885C28.3327 43.9998 29.029 42.1794 30.294 40.7817C31.5589 39.3841 33.3008 38.5104 35.1772 38.3325C37.0536 38.1546 38.9286 38.6854 40.4335 39.8204C41.9385 40.9554 42.9643 42.6126 43.3094 44.466L46.5299 59.1887L31.8816 62.5944L28.6824 48.1058C28.4597 47.3865 28.345 46.6381 28.3419 45.885Z" fill="#C1272D"/>
<path d="M26.3855 33.5249L20.7531 33.61L15.2627 33.5249L3.51562 38.5484L5.75721 81.8509H20.7531H35.8909L38.1325 38.5484L26.3855 33.5249Z" fill="#7F0B00"/>
<path d="M20.9158 38.832C19.2847 38.832 17.7204 38.1839 16.567 37.0303C15.4136 35.8766 14.7656 34.3119 14.7656 32.6804V19.5896H27.066V32.6804C27.066 34.3119 26.418 35.8766 25.2646 37.0303C24.1113 38.1839 22.5469 38.832 20.9158 38.832Z" fill="#F3C7AB"/>
<g style="mix-blend-mode:soft-light">
<g style="mix-blend-mode:multiply">
<path d="M14.7012 23.3715C14.7012 23.3715 17.9146 29.8212 21.7948 29.4877C27.569 28.991 27.0441 22.4775 27.0441 22.4775C25.1677 23.6898 22.9857 24.3443 20.752 24.3649C16.6519 24.372 14.7012 23.3715 14.7012 23.3715Z" fill="#1A1A1A"/>
</g>
</g>
<path d="M11.7441 18.1067L11.1198 11.8912C9.36771 6.57685 13.4324 5.80347 16.1492 5.80347H25.5554C28.3928 5.80347 31.8616 7.93205 30.4003 12.3808L29.5633 19.1568L11.7441 18.1067Z" fill="#1A1A1A"/>
<path d="M28.4568 21.1224C30.1309 22.7189 34.1317 16.922 32.5002 15.2191C30.8687 13.5163 29.3577 16.0848 29.3577 16.0848L29.0243 18.3624L28.4852 20.4909L28.3008 21.1366L28.4568 21.1224Z" fill="#F3C7AB"/>
<path d="M31.7621 17.0285C31.7621 17.0285 30.4852 16.4112 29.2793 18.263" stroke="#D26665" stroke-width="0.52" stroke-linecap="round" stroke-linejoin="round"/>
<path d="M30.0527 17.3831C30.0527 17.3831 31.4147 18.348 30.301 19.391" stroke="#D26665" stroke-width="0.52" stroke-linecap="round" stroke-linejoin="round"/>
<path d="M13.2459 21.257C11.5718 22.8606 7.57095 17.0708 9.1812 15.3679C10.7915 13.6651 12.274 16.2407 12.274 16.2407L12.6713 18.4828L13.2104 20.6114L13.4019 21.257H13.2459Z" fill="#F3C7AB"/>
<path d="M9.94141 17.1775C9.94141 17.1775 11.2183 16.5531 12.4242 18.4049" stroke="#D26665" stroke-width="0.52" stroke-linecap="round" stroke-linejoin="round"/>
<path d="M11.6532 17.5037C11.6532 17.5037 10.2983 18.4686 11.412 19.5187" stroke="#D26665" stroke-width="0.52" stroke-linecap="round" stroke-linejoin="round"/>
<path d="M29.5617 12.6861C29.5591 15.6604 29.214 18.6245 28.5332 21.5198C28.258 22.6069 27.7679 23.6278 27.0917 24.5223C26.4155 25.4168 25.567 26.1667 24.5962 26.7277L24.2344 26.9477C23.1754 27.5735 21.9706 27.9101 20.7406 27.9238C19.5106 27.9375 18.2986 27.6278 17.2259 27.0257C16.18 26.4504 15.2688 25.6585 14.5532 24.7029C13.8376 23.7473 13.334 22.65 13.0761 21.4843C12.5331 18.5782 12.2177 15.6342 12.1327 12.679C12.1327 12.679 11.324 3.67512 20.716 3.8454C30.1079 4.01569 29.5617 12.6861 29.5617 12.6861Z" fill="#F3C7AB"/>
<path d="M27.5334 3.31313C23.8305 -0.390609 18.6096 1.74507 15.8147 3.2138C13.8427 4.25681 12.6581 6.91754 12.6864 6.93173C12.0977 8.14503 11.5656 11.8204 12.2963 16.5033C12.9112 14.2405 13.2868 11.9195 13.4171 9.57827C18.4252 5.83906 24.1923 6.6763 27.505 9.32284C27.9519 11.8984 29.321 16.5033 29.321 16.5033C29.7892 13.4665 30.5056 10.827 30.7397 10.5645C30.7468 10.529 31.6903 7.45678 27.5334 3.31313Z" fill="#1A1A1A"/>
<path d="M20.4121 15.6091L20.0078 18.3905C20.0081 18.481 20.0275 18.5704 20.0646 18.653C20.2135 18.9723 20.6391 18.653 21.0151 18.5962L21.8309 18.8446" stroke="#D26665" stroke-width="0.52" stroke-linecap="round" stroke-linejoin="round"/>
<path d="M16.7101 15.2757C17.2468 15.2757 17.6819 15.0152 17.6819 14.6939C17.6819 14.3725 17.2468 14.1121 16.7101 14.1121C16.1734 14.1121 15.7383 14.3725 15.7383 14.6939C15.7383 15.0152 16.1734 15.2757 16.7101 15.2757Z" fill="#1A1A1A"/>
<path d="M24.796 15.2757C25.3328 15.2757 25.7679 15.0152 25.7679 14.6939C25.7679 14.3725 25.3328 14.1121 24.796 14.1121C24.2593 14.1121 23.8242 14.3725 23.8242 14.6939C23.8242 15.0152 24.2593 15.2757 24.796 15.2757Z" fill="#1A1A1A"/>
<path d="M18.4258 21.3279C19.1258 21.6616 19.9017 21.8036 20.6745 21.7394C21.495 21.7581 22.3115 21.6184 23.0792 21.3279" stroke="#D26665" stroke-width="0.52" stroke-linecap="round" stroke-linejoin="round"/>
<path d="M20.7383 26.2806V24.5422" stroke="#D26665" stroke-width="0.39" stroke-linecap="round" stroke-linejoin="round"/>
<path d="M18.9221 13.8355V12.8493H15.9711C15.6192 12.8453 15.2713 12.9255 14.9567 13.0834L13.8359 13.9561L15.7938 13.7787L18.9221 13.8355Z" fill="#1A1A1A"/>
<path d="M22.4004 13.8357V12.8495H25.3513C25.7032 12.8463 26.0508 12.9265 26.3657 13.0836L27.5078 13.9563L25.5571 13.7789L22.4004 13.8357Z" fill="#1A1A1A"/>
<g style="mix-blend-mode:soft-light">
<path d="M14.9355 25.188C14.9355 25.188 16.6096 26.607 17.773 26.4509C18.7235 26.3161 18.83 25.5853 20.7594 25.4789C22.3413 25.4008 23.0365 26.3516 23.7813 26.38C24.9376 26.4226 26.5194 25.188 26.5194 25.188C26.5194 25.188 24.058 27.9268 20.7452 27.9268C19.6402 27.8968 18.5533 27.638 17.5533 27.1666C16.5534 26.6952 15.662 26.0215 14.9355 25.188Z" fill="#333333"/>
</g>
</g>
</g>
</svg>
