<svg width="40" height="41" viewBox="0 0 40 41" fill="none" xmlns="http://www.w3.org/2000/svg">
<mask id="mask0_171_728" style="mask-type:alpha" maskUnits="userSpaceOnUse" x="0" y="0" width="40" height="41">
<rect y="0.0600586" width="40" height="40" fill="#C4C4C4"/>
</mask>
<g mask="url(#mask0_171_728)">
<g opacity="0.2">
<path d="M12.0144 47.0571C12.0236 45.1708 11.3279 43.3492 10.0641 41.9507C8.80037 40.5523 7.06003 39.678 5.18536 39.5C3.3107 39.322 1.43739 39.8531 -0.0661473 40.9888C-1.56968 42.1245 -2.59464 43.7827 -2.93942 45.6372L-6.16406 60.376L8.47793 63.7767L11.6742 49.2793C11.8967 48.5595 12.0113 47.8106 12.0144 47.0571Z" fill="#C1272D"/>
<path d="M27.5216 47.0571C27.5124 45.1708 28.2081 43.3492 29.4719 41.9507C30.7356 40.5523 32.476 39.678 34.3506 39.5C36.2253 39.322 38.0986 39.8531 39.6021 40.9888C41.1057 42.1245 42.1306 43.7827 42.4754 45.6372L45.6929 60.3689L31.058 63.7767L27.8618 49.2793C27.6393 48.5595 27.5246 47.8106 27.5216 47.0571Z" fill="#C1272D"/>
<path d="M25.5657 34.6897L19.9385 34.7749L14.4531 34.6897L2.7168 39.7162L4.95633 83.0452H19.9385H35.0624L37.302 39.7162L25.5657 34.6897Z" fill="#7F0B00"/>
<path d="M20.0996 41.4202C18.47 41.4202 16.9071 40.7717 15.7548 39.6173C14.6024 38.463 13.9551 36.8973 13.9551 35.2648V22.166H26.2441V35.2648C26.2441 36.8973 25.5968 38.463 24.4445 39.6173C23.2921 40.7717 21.7292 41.4202 20.0996 41.4202Z" fill="#F3C7AB"/>
<g style="mix-blend-mode:soft-light">
<g style="mix-blend-mode:multiply">
<path d="M13.9551 27.9735C13.9551 27.9735 17.3427 34.278 21.2052 33.9585C27.1726 33.4828 26.1662 26.0637 26.1662 26.0637C26.1662 26.0637 23.8487 31.0335 20.1847 31.0335C18.9842 31.0214 17.8016 30.7404 16.7236 30.2109C15.6457 29.6814 14.6997 28.9169 13.9551 27.9735Z" fill="#1A1A1A"/>
</g>
</g>
<path d="M10.9375 19.2622L10.3138 13.0429C9.52714 9.06 12.6242 6.95142 15.3386 6.95142H24.7361C27.5709 6.95142 31.0366 9.0813 29.5766 13.5328L28.7403 20.3129L10.9375 19.2622Z" fill="#1A1A1A"/>
<path d="M28.1025 22.677C29.9664 24.0543 33.1839 17.7924 31.3696 16.2873C29.5553 14.7822 28.3576 17.5297 28.3576 17.5297L28.308 19.83L28.0458 21.9599L27.9395 22.6273L28.1025 22.677Z" fill="#F3C7AB"/>
<path d="M30.8658 18.1974C30.8658 18.1974 29.5193 17.7501 28.5625 19.738" stroke="#D26665" stroke-width="0.52" stroke-linecap="round" stroke-linejoin="round"/>
<path d="M29.2148 18.7654C29.2148 18.7654 30.6819 19.5534 29.7109 20.732" stroke="#D26665" stroke-width="0.52" stroke-linecap="round" stroke-linejoin="round"/>
<path d="M11.8505 22.6771C9.98662 24.0545 6.76907 17.7926 8.58337 16.2875C10.3977 14.7824 11.5387 17.5512 11.5387 17.5512L11.6379 19.8302L11.9072 21.9601L12.0064 22.6274L11.8505 22.6771Z" fill="#F3C7AB"/>
<path d="M9.08594 18.1974C9.08594 18.1974 10.4325 17.7501 11.3893 19.738" stroke="#D26665" stroke-width="0.52" stroke-linecap="round" stroke-linejoin="round"/>
<path d="M10.7384 18.7654C10.7384 18.7654 9.27132 19.5534 10.2423 20.732" stroke="#D26665" stroke-width="0.52" stroke-linecap="round" stroke-linejoin="round"/>
<path d="M28.7396 14.5978C28.7283 17.8259 28.3743 21.0435 27.6836 24.1965C27.1754 26.5332 25.767 28.5744 23.7644 29.8762L23.403 30.1105C22.3645 30.7896 21.1544 31.1583 19.9143 31.1734C18.6743 31.1884 17.4556 30.8493 16.4009 30.1957C15.3304 29.5357 14.4088 28.6594 13.695 27.6229C12.9812 26.5863 12.4907 25.4122 12.2549 24.1752C11.712 21.0143 11.397 17.8183 11.3124 14.612C11.3124 14.612 10.5044 4.81457 19.8878 4.99916C29.2711 5.18375 28.7396 14.5978 28.7396 14.5978Z" fill="#F3C7AB"/>
<path d="M28.8395 3.50827C25.8558 1.37839 19.9664 2.87641 16.7914 4.35313C16.8552 3.38758 16.2669 3.49407 16.2669 3.49407C10.5972 5.01339 12.0997 9.47195 12.0997 9.47195H12.1564C11.5682 10.757 10.7957 13.4903 11.5257 18.4388C11.5257 18.4388 13.021 13.0786 13.0636 9.91923C15.5653 11.0268 22.4327 13.7175 26.9118 12.2124C27.3162 14.3305 27.8583 16.4199 28.5347 18.4672C28.9302 16.1348 28.9134 13.7509 28.4851 11.4243C28.7641 11.2279 29.025 11.007 29.2647 10.7641C29.2647 10.7641 33.0634 6.50431 28.8395 3.50827Z" fill="#1A1A1A"/>
<path d="M19.1934 18.3462V21.4984C19.1937 21.6005 19.2129 21.7016 19.2501 21.7966C19.3269 21.9739 19.4662 22.1166 19.6412 22.1978C19.8163 22.279 20.0151 22.2928 20.1997 22.2368L21.0147 22.0238" stroke="#D26665" stroke-width="0.52" stroke-linecap="round" stroke-linejoin="round"/>
<path d="M16.0611 18.2823C16.5112 18.2823 16.8761 17.9168 16.8761 17.4659C16.8761 17.015 16.5112 16.6494 16.0611 16.6494C15.611 16.6494 15.2461 17.015 15.2461 17.4659C15.2461 17.9168 15.611 18.2823 16.0611 18.2823Z" fill="#1A1A1A"/>
<path d="M23.6099 18.2823C24.0601 18.2823 24.425 17.9168 24.425 17.4659C24.425 17.015 24.0601 16.6494 23.6099 16.6494C23.1598 16.6494 22.7949 17.015 22.7949 17.4659C22.7949 17.9168 23.1598 18.2823 23.6099 18.2823Z" fill="#1A1A1A"/>
<path d="M17.6133 23.8059C18.2978 24.186 19.0804 24.3517 19.8599 24.2816C20.6858 24.3003 21.5057 24.1379 22.2624 23.8059" stroke="#D26665" stroke-width="0.52" stroke-linecap="round" stroke-linejoin="round"/>
<path d="M19.9238 28.2078V29.0952" stroke="#D26665" stroke-width="0.39" stroke-linecap="round" stroke-linejoin="round"/>
<path d="M18.1088 15.5918V14.0015L15.1606 14.0583C14.79 14.0651 14.4327 14.1978 14.1471 14.4345L13.0273 15.819L14.9834 15.5279L18.1088 15.5918Z" fill="#1A1A1A"/>
<path d="M21.582 15.5918V14.0015L24.5303 14.0583C24.9007 14.0662 25.2576 14.1988 25.5437 14.4345L26.6848 15.819L24.7358 15.5279L21.582 15.5918Z" fill="#1A1A1A"/>
</g>
</g>
</svg>
