<svg width="24" height="25" viewBox="0 0 24 25" fill="none" xmlns="http://www.w3.org/2000/svg">
<path d="M13.5 4.26305C13.5 3.42755 12.4905 3.00905 11.8995 3.60005L8.379 7.12055C8.23966 7.25994 8.07421 7.3705 7.89211 7.44591C7.71002 7.52132 7.51484 7.56011 7.31775 7.56005H4.5C3.70435 7.56005 2.94129 7.87612 2.37868 8.43873C1.81607 9.00134 1.5 9.7644 1.5 10.56V13.56C1.5 14.3557 1.81607 15.1188 2.37868 15.6814C2.94129 16.244 3.70435 16.5601 4.5 16.5601H7.31775C7.51484 16.56 7.71002 16.5988 7.89211 16.6742C8.07421 16.7496 8.23966 16.8602 8.379 16.9996L11.8995 20.5201C12.4905 21.1111 13.5 20.6925 13.5 19.857V4.26305ZM9.4395 8.18105L12 5.6213V18.5003L9.4395 15.9398C9.16096 15.661 8.83021 15.4398 8.46616 15.2888C8.1021 15.1379 7.71186 15.0601 7.31775 15.06H4.5C4.10218 15.06 3.72064 14.902 3.43934 14.6207C3.15804 14.3394 3 13.9579 3 13.56V10.56C3 10.1622 3.15804 9.78069 3.43934 9.49939C3.72064 9.21808 4.10218 9.06005 4.5 9.06005H7.31775C7.71176 9.06016 8.10193 8.98266 8.46598 8.83197C8.83004 8.68128 9.16084 8.46035 9.4395 8.1818V8.18105ZM17.118 7.13555C17.0627 7.0533 16.9916 6.98284 16.9088 6.92823C16.8261 6.87363 16.7334 6.83597 16.636 6.81743C16.5386 6.79889 16.4385 6.79983 16.3415 6.82021C16.2445 6.84059 16.1525 6.88 16.0708 6.93616C15.9891 6.99232 15.9194 7.06411 15.8656 7.14739C15.8119 7.23067 15.7751 7.32378 15.7576 7.42135C15.74 7.51891 15.742 7.61898 15.7633 7.71578C15.7847 7.81258 15.825 7.90418 15.882 7.9853C16.8458 9.38705 17.2973 10.7415 17.2973 12.06C17.2973 13.3785 16.8458 14.7331 15.882 16.1348C15.7692 16.2987 15.7262 16.5007 15.7623 16.6963C15.7985 16.892 15.9108 17.0653 16.0748 17.178C16.2387 17.2908 16.4406 17.3339 16.6363 17.2977C16.8319 17.2616 17.0052 17.1492 17.118 16.9853C18.2168 15.387 18.7965 13.7415 18.7965 12.06C18.7965 10.3785 18.2168 8.73305 17.118 7.13555V7.13555ZM19.2675 4.01705C19.1235 3.8798 18.9309 3.80538 18.732 3.81016C18.5331 3.81495 18.3443 3.89854 18.207 4.04255C18.0698 4.18656 17.9953 4.3792 18.0001 4.57808C18.0049 4.77696 18.0885 4.9658 18.2325 5.10305C20.0228 6.8078 20.9535 9.4073 20.9535 12.06C20.9535 14.7128 20.0228 17.3123 18.2325 19.017C18.1612 19.085 18.104 19.1663 18.0641 19.2564C18.0242 19.3465 18.0025 19.4435 18.0001 19.542C17.9977 19.6405 18.0148 19.7385 18.0503 19.8304C18.0858 19.9222 18.139 20.0062 18.207 20.0776C18.275 20.1489 18.3563 20.2061 18.4464 20.246C18.5364 20.2858 18.6335 20.3076 18.732 20.3099C18.8304 20.3123 18.9284 20.2953 19.0203 20.2598C19.1122 20.2243 19.1962 20.171 19.2675 20.1031C21.4148 18.0578 22.4528 15.0323 22.4528 12.06C22.4528 9.0878 21.4148 6.0623 19.2675 4.01705V4.01705Z" fill="black"/>
</svg>
