<?xml version="1.0" encoding="utf-8"?>
<!-- Generator: Adobe Illustrator 25.0.0, SVG Export Plug-In . SVG Version: 6.00 Build 0)  -->
<svg version="1.1" id="Layer_1" xmlns="http://www.w3.org/2000/svg" xmlns:xlink="http://www.w3.org/1999/xlink" x="0px" y="0px"
	 viewBox="0 0 113.1 143.6" style="enable-background:new 0 0 113.1 143.6;" xml:space="preserve">
<style type="text/css">
	.st0{opacity:0.6;}
	.st1{fill:#FFFFFF;}
</style>
<g id="Layer_2_1_" class="st0">
	<g id="Layer_2-2">
		<path class="st1" d="M112.3,84.8c0.5,0.7,0.8,1.5,0.8,2.3c0,0.7-0.2,1.5-0.8,2l-53.7,53.5c-0.9,1.1-2.5,1.3-3.6,0.5
			c-0.2-0.1-0.3-0.3-0.5-0.5L0.8,89.1c-0.5-0.5-0.8-1.3-0.8-2c0-0.8,0.3-1.6,0.8-2.3l2-1.8c0.5-0.5,1.3-0.8,2-0.8
			c0.8,0,1.6,0.3,2.3,0.8l45.1,45.4V3.1c0-1.7,1.3-3,2.9-3c0,0,0,0,0.1,0h2.5c1.7,0,3,1.3,3,3c0,0,0,0,0,0.1v125.2L106,83
			c0.7-0.5,1.5-0.8,2.3-0.8c0.7,0,1.5,0.2,2,0.8L112.3,84.8z"/>
	</g>
</g>
</svg>
