<?xml version="1.0" encoding="utf-8"?>
<!-- Generator: Adobe Illustrator 25.0.0, SVG Export Plug-In . SVG Version: 6.00 Build 0)  -->
<svg version="1.1" id="Layer_1" xmlns="http://www.w3.org/2000/svg" xmlns:xlink="http://www.w3.org/1999/xlink" x="0px" y="0px"
	 viewBox="0 0 143.6 113.1" style="enable-background:new 0 0 143.6 113.1;" xml:space="preserve">
<style type="text/css">
	.st0{opacity:0.6;}
	.st1{fill:#FFFFFF;}
</style>
<g id="Layer_2_1_" class="st0">
	<g id="Layer_2-2">
		<path class="st1" d="M82.9,110.3c-0.6-0.5-0.8-1.3-0.8-2c0-0.8,0.3-1.6,0.8-2.3l45.4-45.3H3.1c-0.1,0-0.1,0-0.1,0
			c-1.7,0-3-1.3-3-3v-2.5c0-0.1,0-0.1,0-0.1c0-1.6,1.3-2.9,3-2.9h125.3L82.9,7.1c-0.5-0.7-0.8-1.5-0.8-2.3c0-0.7,0.3-1.5,0.8-2
			l1.8-2C85.4,0.3,86.2,0,87,0c0.7,0,1.5,0.3,2,0.8l53.5,53.7c0.2,0.2,0.4,0.3,0.5,0.5c0.8,1.1,0.6,2.7-0.5,3.6L89,112.3
			c-0.5,0.6-1.3,0.8-2,0.8c-0.8,0-1.6-0.3-2.3-0.8L82.9,110.3z"/>
	</g>
</g>
</svg>
