<?xml version="1.0" encoding="utf-8"?>
<!-- Generator: Adobe Illustrator 25.0.0, SVG Export Plug-In . SVG Version: 6.00 Build 0)  -->
<svg version="1.1" id="Layer_1" xmlns="http://www.w3.org/2000/svg" xmlns:xlink="http://www.w3.org/1999/xlink" x="0px" y="0px"
	 viewBox="0 0 143.6 113.1" style="enable-background:new 0 0 143.6 113.1;" xml:space="preserve">
<style type="text/css">
	.st0{opacity:0.6;}
	.st1{fill:#FFFFFF;}
</style>
<g id="Layer_2_1_" class="st0">
	<g id="Layer_2-2">
		<path class="st1" d="M58.8,112.3c-0.7,0.5-1.5,0.8-2.3,0.8c-0.7,0-1.5-0.2-2-0.8L1,58.6c-1.1-0.9-1.3-2.5-0.5-3.6
			c0.1-0.2,0.3-0.3,0.5-0.5L54.5,0.8C55,0.3,55.8,0,56.5,0c0.8,0,1.6,0.3,2.3,0.8l1.8,2c0.5,0.5,0.8,1.3,0.8,2
			c0,0.8-0.3,1.6-0.8,2.3L15.2,52.2h125.3c1.7,0,3,1.3,3,2.9c0,0,0,0,0,0.1v2.5c0,1.7-1.3,3-3,3c0,0,0,0-0.1,0H15.2L60.6,106
			c0.5,0.7,0.8,1.5,0.8,2.3c0,0.7-0.2,1.5-0.8,2L58.8,112.3z"/>
	</g>
</g>
</svg>
