<?xml version="1.0" encoding="utf-8"?>
<!-- Generator: Adobe Illustrator 25.0.0, SVG Export Plug-In . SVG Version: 6.00 Build 0)  -->
<svg version="1.1" id="Layer_1" xmlns="http://www.w3.org/2000/svg" xmlns:xlink="http://www.w3.org/1999/xlink" x="0px" y="0px"
	 viewBox="0 0 113.1 143.6" style="enable-background:new 0 0 113.1 143.6;" xml:space="preserve">
<style type="text/css">
	.st0{opacity:0.6;}
	.st1{fill:#FFFFFF;}
</style>
<g id="Layer_2_1_" class="st0">
	<g id="Layer_2-2">
		<path class="st1" d="M110.3,60.6c-0.5,0.6-1.3,0.8-2,0.8c-0.8,0-1.6-0.3-2.3-0.8L60.7,15.2v125.2c0,0.1,0,0.1,0,0.1
			c0,1.7-1.3,3-3,3h-2.5c-0.1,0-0.1,0-0.1,0c-1.6,0-2.9-1.3-2.9-3V15.2L7.1,60.6c-0.7,0.5-1.5,0.8-2.3,0.8c-0.7,0-1.5-0.3-2-0.8
			l-2-1.8C0.3,58.1,0,57.3,0,56.5c0-0.7,0.3-1.5,0.8-2L54.5,1c0.2-0.2,0.3-0.4,0.5-0.5c1.1-0.8,2.7-0.6,3.6,0.5l53.7,53.5
			c0.6,0.5,0.8,1.3,0.8,2c0,0.8-0.3,1.6-0.8,2.3L110.3,60.6z"/>
	</g>
</g>
</svg>
