<svg id="Layer_1" data-name="Layer 1" xmlns="http://www.w3.org/2000/svg" xmlns:xlink="http://www.w3.org/1999/xlink" viewBox="0 0 62 62"><defs><style>.cls-1,.cls-5,.cls-6{fill:none;}.cls-2,.cls-3{fill:#fff;}.cls-3,.cls-5,.cls-6{stroke:#000;}.cls-3{stroke-miterlimit:10;stroke-width:0.91px;}.cls-4{clip-path:url(#clip-path);}.cls-5{stroke-miterlimit:5.51;}.cls-5,.cls-6{stroke-width:1.65px;}.cls-6{stroke-miterlimit:2.21;}</style><clipPath id="clip-path"><rect class="cls-1" x="17.5" y="20.67" width="27" height="20.66"/></clipPath></defs><circle class="cls-2" cx="31" cy="31" r="31"/><circle class="cls-3" cx="31" cy="31" r="26"/><g class="cls-4"><g id="Layer_2" data-name="Layer 2"><g id="Layer_1-2" data-name="Layer 1-2"><path class="cls-5" d="M41.69,24.67a1.93,1.93,0,0,1,1.42.55,2,2,0,0,1,.55,1.49v11.6a2.23,2.23,0,0,1-.55,1.56,1.8,1.8,0,0,1-1.42.65H20.57A2.18,2.18,0,0,1,19,39.85a2.09,2.09,0,0,1-.66-1.54V26.74A1.87,1.87,0,0,1,19,25.26a2.21,2.21,0,0,1,1.58-.59h4a29.42,29.42,0,0,1,2.41-2.58,2,2,0,0,1,1.22-.59H34a2,2,0,0,1,1.22.59,29.42,29.42,0,0,1,2.41,2.58Z"/><path class="cls-6" d="M28.14,29.52a4,4,0,0,1,5.72,0A4,4,0,0,1,34,35.1l-.11.1a4,4,0,0,1-5.72,0A4,4,0,0,1,28,29.62Z"/></g></g></g></svg>