<svg xmlns="http://www.w3.org/2000/svg" viewBox="0 0 271.4 170"><defs><style>.cls-1{fill:#fff;}.cls-2{fill:#cfe0f3;}.cls-3{fill:#12083a;}.cls-4{fill:#fe9c89;}.cls-5{fill:#fe836c;opacity:0.54;}.cls-5,.cls-7{isolation:isolate;}.cls-6{fill:#f79520;}.cls-7{fill:#bf1616;opacity:0.49;}.cls-8{fill:#ff9e8e;}.cls-9{fill:#ffb2a4;}.cls-10{fill:#bc0d35;}.cls-11{fill:#ff4242;}.cls-12{fill:#ff684e;}.cls-13{fill:#ff8671;}</style></defs><g id="Layer_2" data-name="Layer 2"><g id="Layer_1-2" data-name="Layer 1"><rect class="cls-1" width="271.4" height="170"/><rect class="cls-2" x="115.3" y="20.9" width="59" height="11.2"/><rect class="cls-2" x="115.3" y="42" width="79" height="11.2"/><rect class="cls-2" x="115.3" y="82.7" width="138" height="11.2"/><rect class="cls-2" x="115.3" y="104.7" width="138" height="11.2"/><rect class="cls-2" x="15.4" y="134.1" width="147.2" height="11.2"/><rect class="cls-2" x="176.1" y="134.1" width="80" height="11.2"/><path class="cls-2" d="M248,32.7c0,3.9-5.1,7.1-11.3,7.1s-11.3-3.2-11.3-7.1,5.1-7.1,11.4-7.1S248,28.8,248,32.7Z"/><rect class="cls-2" x="15.2" y="14.4" width="89.4" height="106.5"/><path class="cls-3" d="M89.7,95.4C85.6,82.2,86,70.9,83.2,44.6c-.3-3-.9-8.2-4.7-12.9a25.21,25.21,0,0,0-10.8-7.5,24,24,0,0,0-7.8-1.3,24.06,24.06,0,0,0-18.6,8.8c-3.7,4.7-4.3,9.8-4.7,12.9-2.8,26.3-2.4,37.7-6.5,50.8a73.7,73.7,0,0,1-5.5,13.2H95A77.83,77.83,0,0,1,89.7,95.4Z"/><path class="cls-4" d="M97.4,104.8c-.4-.1-2.8-1-7.7-2.6-3.3-1.1-4.2-1.4-5.7-2-3.5-1.3-5.3-2-6.7-3.1-5.4-4.1-6.8-10.6-7.2-12.8a24.3,24.3,0,0,1,.5-10.1c-3.4-5-6.8-10.1-10.2-15.1-.1-.2-.3-.4-.4-.6-.1.2-.3.4-.4.6-3.4,5-6.8,10.1-10.2,15.1a24.3,24.3,0,0,1,.5,10.1c-.4,2.2-1.9,8.7-7.2,12.8-1.3,1-3.1,1.7-6.7,3.1-2.3.9-4.1,1.5-5.7,2-5,1.5-6.3,2-7,2.2-2.9,1.1-6.3,4.7-7.9,16.5h89C103.5,109.6,100.3,106,97.4,104.8Z"/><path class="cls-5" d="M50,77.3a21.3,21.3,0,0,1,.2,2.7,18.48,18.48,0,0,1-.1,2.4A15.89,15.89,0,0,0,54,86.9c1.6,1.3,3.6,2.8,6.3,2.8a9.65,9.65,0,0,0,6.1-2.6,11.33,11.33,0,0,0,3.5-4.8c0-.5-.1-1-.1-1.6a20.52,20.52,0,0,1,.3-3.7,33.1,33.1,0,0,1-9.6,1.6A36.9,36.9,0,0,1,50,77.3Z"/><path class="cls-6" d="M97.4,104.8c-.4-.1-2.8-1-7.7-2.6-3.3-1.1-4.2-1.4-5.7-2-3.5-1.3-5.3-2-6.7-3.1a19.1,19.1,0,0,1-3.9-4.2,20.38,20.38,0,0,1-13.2,5,21,21,0,0,1-13.8-5,14.47,14.47,0,0,1-2,2.5,18.18,18.18,0,0,1-1.8,1.7,7,7,0,0,1-1,.7,29.47,29.47,0,0,1-5.7,2.4c-.1,0,0,0-.9.3-4.1,1.4-3.8,1.3-4.8,1.7-2.7.9-3.6,1.1-6.5,2.1-.1.1-.4.1-.4.1-2.9,1.1-6.3,4.7-7.9,16.5h89C103.5,109.6,100.3,106,97.4,104.8Z"/><path class="cls-7" d="M78.4,97.9a7.17,7.17,0,0,1-1.1,1.5c-3.1,3.8-9.7,7.6-17.3,7.6h0c-7.6,0-14.2-3.8-17.3-7.6-.4-.6-.8-1.1-1.1-1.6-.1,0-.1.1-.2.1.3.5.7,1,1.1,1.6,3.2,3.8,9.9,7.7,17.5,7.7h0c7.7,0,14.3-3.9,17.5-7.8a9.06,9.06,0,0,0,1.1-1.6C78.6,97.9,78.5,97.9,78.4,97.9Z"/><path class="cls-8" d="M42.6,53.8c-.9-.9-2.4-1.5-3.1-1s-.3,1.4.2,4.5c.8,5,.7,5.4,1.3,6.5,1.1,2,3.4,4,4.4,3.5,1.2-.6-1.1-4.4-1.7-10.7A4.33,4.33,0,0,0,42.6,53.8Z"/><path class="cls-8" d="M77.3,53.8c.9-.9,2.4-1.5,3.1-1s.3,1.4-.2,4.5c-.8,5-.7,5.4-1.3,6.5-1.1,2-3.4,4-4.4,3.5-1.2-.6,1.1-4.4,1.7-10.7A4.33,4.33,0,0,1,77.3,53.8Z"/><ellipse class="cls-1" cx="76.7" cy="66.8" rx="3.1" ry="3"/><ellipse class="cls-1" cx="43.1" cy="66.8" rx="3.1" ry="3"/><path class="cls-9" d="M78.2,46.7c0-1.7-.1-2.5-.1-3a18.52,18.52,0,0,0-18-15.9h-.2a19.39,19.39,0,0,0-9.3,2.7,18,18,0,0,0-8.7,13.2c0,.4-.1,1.3-.1,3s-.1,6.1.3,10.3c.4,4,.8,8.1,3.1,12.9a32.81,32.81,0,0,0,5.4,7.9,23.43,23.43,0,0,0,3.9,3.3A10.65,10.65,0,0,0,58.3,83c.7.1,1.2.2,1.7.3h.2a6.75,6.75,0,0,0,1.7-.3,11.73,11.73,0,0,0,3.8-1.9,22.92,22.92,0,0,0,3.9-3.3A32.81,32.81,0,0,0,75,69.9c2.3-4.8,2.7-8.9,3.1-12.9A91.06,91.06,0,0,0,78.2,46.7Z"/><path class="cls-10" d="M53.8,70.3a6.21,6.21,0,0,0,1.1,2.9c.1.1.4.5.9,1a8.32,8.32,0,0,0,2.1,1.4,6.09,6.09,0,0,0,4,0A6.3,6.3,0,0,0,64,74.2a5.8,5.8,0,0,0,.9-1A6.21,6.21,0,0,0,66,70.3c-1.9-.1-4-.3-6.2-.3Z"/><path class="cls-1" d="M63.2,70.4H61.9a5.72,5.72,0,0,0-1.4.1c-.2.1-.4.1-.6.2-.1-.1-.3-.1-.5-.2a3.33,3.33,0,0,0-1.4-.1H56.7a21.92,21.92,0,0,1-2.9-.1,5.25,5.25,0,0,0,1.1.7,7.14,7.14,0,0,0,1.5.7,8.28,8.28,0,0,0,3.6.8,8.43,8.43,0,0,0,3.7-.8c.7-.3,1.4-.7,1.5-.7.4-.3.8-.5,1.1-.7C65.4,70.3,64.4,70.4,63.2,70.4Z"/><path class="cls-11" d="M66.4,70.2c-.2,0-.4.1-.6.1a8.4,8.4,0,0,1-5.3,3.5c-.3,0-.5.1-.7.1a1.48,1.48,0,0,1-.7-.1,8.69,8.69,0,0,1-5.3-3.5c-.2,0-.4-.1-.6-.1a8.47,8.47,0,0,0,2.2,4,6,6,0,0,0,4.2,2.1A6.29,6.29,0,0,0,64,74.2,6.72,6.72,0,0,0,66.4,70.2Z"/><path class="cls-11" d="M65.4,70a22.11,22.11,0,0,0-11.2,0c-.4.1-.7.2-1,.3.2,0,.4.1.6.1.7.1,2.7.3,4.5.4a5.85,5.85,0,0,1,1,.1h.8a5.13,5.13,0,0,0,1-.1c1.9-.1,3.8-.4,4.5-.4.2,0,.4-.1.6-.1C66.2,70.2,65.8,70.1,65.4,70Z"/><path class="cls-12" d="M61.6,65.4c-.2,0-.3.1-.6.5-.2.2-.3.4-.6.5a4.33,4.33,0,0,1-.5.1,4.33,4.33,0,0,1-.5-.1c-.2-.1-.3-.3-.6-.5-.4-.4-.4-.4-.6-.5-.6-.2-1.4.5-1.4.6s.5.1.5.1c.5,0,.6-.3.9-.3.5,0,.7.8,1.5,1h.4c.8-.1,1-1,1.5-1,.3,0,.4.2.9.3.1,0,.5,0,.5-.1A1.83,1.83,0,0,0,61.6,65.4Z"/><path class="cls-1" d="M70.9,55.7a1.33,1.33,0,0,0-.3-.7A3.42,3.42,0,0,0,68,54c-2.1,0-3.5,1.9-3.7,2.1h.6c2.4-.1,3.5.7,4.9.2A2.42,2.42,0,0,0,70.9,55.7Z"/><circle class="cls-3" cx="68.1" cy="55.2" r="1.6"/><path class="cls-3" d="M73.3,55.4l-2.3.3a2.43,2.43,0,0,0-.7-.9,3.6,3.6,0,0,0-3.1-.6,5,5,0,0,0-2.8,1.9h0a7.06,7.06,0,0,1,1.8-2,4.35,4.35,0,0,1,2.4-.8C71.1,53.1,73,55.1,73.3,55.4Z"/><path class="cls-13" d="M70.9,55.7a2.93,2.93,0,0,1-.8.4,4.48,4.48,0,0,1-2.3,0,14.35,14.35,0,0,0-2.2-.4,2.8,2.8,0,0,0-1.1.2c-.1.1-.2.1-.3.2a4.33,4.33,0,0,0,.5.1c.6.2,1,.3,1,.4.4.1,3.2,1,4.6-.3A1.17,1.17,0,0,0,70.9,55.7Z"/><path class="cls-1" d="M48.9,55.5a1.33,1.33,0,0,1,.3-.7,3.42,3.42,0,0,1,2.6-1c2.1,0,3.5,1.9,3.7,2.1h-.6c-2.4-.1-3.5.7-4.9.2A2.38,2.38,0,0,1,48.9,55.5Z"/><circle class="cls-3" cx="51.8" cy="55.1" r="1.6"/><path class="cls-3" d="M46.6,55.2l2.3.3a2.43,2.43,0,0,1,.7-.9,3.6,3.6,0,0,1,3.1-.6,5,5,0,0,1,2.8,1.9h0a7.06,7.06,0,0,0-1.8-2,4.35,4.35,0,0,0-2.4-.8C48.7,53,46.9,55,46.6,55.2Z"/><path class="cls-13" d="M48.9,55.5a2.93,2.93,0,0,0,.8.4,4.48,4.48,0,0,0,2.3,0,14.35,14.35,0,0,1,2.2-.4,2.8,2.8,0,0,1,1.1.2c.1.1.2.1.3.2a4.33,4.33,0,0,1-.5.1c-.6.2-1,.3-1,.4-.4.1-3.2,1-4.6-.3Q49.2,56.1,48.9,55.5Z"/><path class="cls-3" d="M56.2,50c-.3.7-3.2.1-6.8.4h-.6a10.64,10.64,0,0,0-2,.3c-1.1.3-1.6.5-1.7.4s.2-.4.5-.7a4.2,4.2,0,0,1,1.4-1,6.52,6.52,0,0,1,1.5-.5c1.4-.2,2.7-.3,3.8-.5,1.3-.1,2-.2,2.7.2S56.4,49.6,56.2,50Z"/><path class="cls-3" d="M63.6,50c.3.7,3.2.1,6.8.4H71a10.64,10.64,0,0,1,2,.3c1.1.3,1.6.5,1.7.4s-.2-.4-.5-.7a4.2,4.2,0,0,0-1.4-1,6.52,6.52,0,0,0-1.5-.5c-1.4-.2-2.7-.3-3.8-.5-1.3-.1-2-.2-2.7.2S63.5,49.6,63.6,50Z"/><path class="cls-3" d="M80,40.6c-.8-5.9-5.1-9.8-6.2-10.8a20.7,20.7,0,0,0-13.5-5.2h-.6a21.89,21.89,0,0,0-13.5,5.2c-1.1,1-5.4,4.8-6.2,10.8a39,39,0,0,0,0,7.7c.1,1,.3,2.4.8,5.2a13.67,13.67,0,0,0,.5,1.9A15.78,15.78,0,0,1,42,57a40.52,40.52,0,0,1,.3-5.5h0a4.4,4.4,0,0,1,.1-.9A26.64,26.64,0,0,1,44,44.1a15.91,15.91,0,0,1,1.9-3.6,16.36,16.36,0,0,1,6.9-5.3,20.37,20.37,0,0,1,5.9-1.4c.5-2,.9-4,1.4-6,.4,2,.7,4,1.1,6a16.61,16.61,0,0,1,6,1.4,15,15,0,0,1,6.9,5.3A15.91,15.91,0,0,1,76,44.1a26.64,26.64,0,0,1,1.6,6.5,5.53,5.53,0,0,0,.1.9h0A41.28,41.28,0,0,1,78,57a6.22,6.22,0,0,0,.7-1.6,13.67,13.67,0,0,0,.5-1.9c.5-2.8.7-4.3.8-5.2A39.08,39.08,0,0,0,80,40.6Z"/></g></g></svg>